# xmcd
#
# Track frame offsets:
#	150
#	15753
#	33792
#	53745
#	67697
#	86938
#	104491
#	125569
#	140047
#	154187
#	171514
#
# Disc length: 2494 seconds
#
# Revision: 0
# Processed by: cddbd v1.5.2PL0 Copyright (c) Steve Scherf et al.
# Submitted via: dBpowerAMP V4.0
#
DISCID=8d09bc0b
DTITLE=K.M. Williams - Truth Music
DYEAR=2005
DGENRE=Blues
TTITLE0=Rock My Soul
TTITLE1=Street Corner Blues
TTITLE2=Having A Hard Time
TTITLE3=Trouble Soon Be Over
TTITLE4=I'm Rollin
TTITLE5=Did You Hear What They Said
TTITLE6=Comin Round The Bend
TTITLE7=That's How To Do It
TTITLE8=Want You To Know
TTITLE9=New Jailhouse Moan
TTITLE10=Ride This Train
EXTD=
EXTT0=
EXTT1=
EXTT2=
EXTT3=
EXTT4=
EXTT5=
EXTT6=
EXTT7=
EXTT8=
EXTT9=
EXTT10=
PLAYORDER=
